<?xml version="1.0" encoding="UTF-8"?>
<!--Generator: CustomSymbols by @serious_bret-->
<!DOCTYPE svg
PUBLIC "-//W3C//DTD SVG 1.1//EN"
       "http://www.w3.org/Graphics/SVG/1.1/DTD/svg11.dtd">
<svg version="1.1" xmlns="http://www.w3.org/2000/svg" xmlns:xlink="http://www.w3.org/1999/xlink" width="3300" height="2200">
 <g id="Notes">
  <rect height="2200" id="artboard" style="fill:white;opacity:1" width="3300" x="0" y="0"/>
  <line id="" style="fill:none;stroke:black;opacity:1;stroke-width:0.5;" x1="263" x2="3036" y1="292" y2="292"/>
  <text id="reftext1" style="stroke:none;fill:black;font-family:-apple-system,&quot;SF Pro Display&quot;,&quot;SF Pro Text&quot;,Helvetica,sans-serif;font-weight:bold;" transform="matrix(1 0 0 1 263 322)">Weight/Scale Variations</text>
  <text id="reftext2" style="stroke:none;fill:black;font-family:-apple-system,&quot;SF Pro Display&quot;,&quot;SF Pro Text&quot;,Helvetica,sans-serif;text-anchor:middle;" transform="matrix(1 0 0 1 559.711 322)">Ultralight</text>
  <text style="stroke:none;fill:black;font-family:-apple-system,&quot;SF Pro Display&quot;,&quot;SF Pro Text&quot;,Helvetica,sans-serif;text-anchor:middle;" transform="matrix(1 0 0 1 856.422 322)">Thin</text>
  <text style="stroke:none;fill:black;font-family:-apple-system,&quot;SF Pro Display&quot;,&quot;SF Pro Text&quot;,Helvetica,sans-serif;text-anchor:middle;" transform="matrix(1 0 0 1 1153.13 322)">Light</text>
  <text style="stroke:none;fill:black;font-family:-apple-system,&quot;SF Pro Display&quot;,&quot;SF Pro Text&quot;,Helvetica,sans-serif;text-anchor:middle;" transform="matrix(1 0 0 1 1449.84 322)">Regular</text>
  <text style="stroke:none;fill:black;font-family:-apple-system,&quot;SF Pro Display&quot;,&quot;SF Pro Text&quot;,Helvetica,sans-serif;text-anchor:middle;" transform="matrix(1 0 0 1 1746.56 322)">Medium</text>
  <text style="stroke:none;fill:black;font-family:-apple-system,&quot;SF Pro Display&quot;,&quot;SF Pro Text&quot;,Helvetica,sans-serif;text-anchor:middle;" transform="matrix(1 0 0 1 2043.27 322)">Semibold</text>
  <text style="stroke:none;fill:black;font-family:-apple-system,&quot;SF Pro Display&quot;,&quot;SF Pro Text&quot;,Helvetica,sans-serif;text-anchor:middle;" transform="matrix(1 0 0 1 2339.98 322)">Bold</text>
  <text style="stroke:none;fill:black;font-family:-apple-system,&quot;SF Pro Display&quot;,&quot;SF Pro Text&quot;,Helvetica,sans-serif;text-anchor:middle;" transform="matrix(1 0 0 1 2636.69 322)">Heavy</text>
  <text style="stroke:none;fill:black;font-family:-apple-system,&quot;SF Pro Display&quot;,&quot;SF Pro Text&quot;,Helvetica,sans-serif;text-anchor:middle;" transform="matrix(1 0 0 1 2933.4 322)">Black</text>
  <line id="" style="fill:none;stroke:black;opacity:1;stroke-width:0.5;" x1="263" x2="3036" y1="1903" y2="1903"/>
  <g id="" transform="matrix(1 0 0 1 263 1933)">
   <path d="M9.24805 0.830078C13.5547 0.830078 17.1387-2.74414 17.1387-7.05078C17.1387-11.3574 13.5449-14.9316 9.23828-14.9316C4.94141-14.9316 1.36719-11.3574 1.36719-7.05078C1.36719-2.74414 4.95117 0.830078 9.24805 0.830078ZM9.24805-0.654297C5.70312-0.654297 2.87109-3.49609 2.87109-7.05078C2.87109-10.6055 5.69336-13.4473 9.23828-13.4473C12.793-13.4473 15.6348-10.6055 15.6445-7.05078C15.6543-3.49609 12.8027-0.654297 9.24805-0.654297ZM6.39648-6.31836L8.50586-6.31836L8.50586-4.19922C8.50586-3.75977 8.79883-3.45703 9.22852-3.45703C9.67773-3.45703 9.9707-3.75977 9.9707-4.19922L9.9707-6.31836L12.0996-6.31836C12.5391-6.31836 12.8418-6.61133 12.8418-7.04102C12.8418-7.48047 12.5391-7.7832 12.0996-7.7832L9.9707-7.7832L9.9707-9.89258C9.9707-10.3418 9.67773-10.6445 9.22852-10.6445C8.79883-10.6445 8.50586-10.3418 8.50586-9.89258L8.50586-7.7832L6.39648-7.7832C5.94727-7.7832 5.64453-7.48047 5.64453-7.04102C5.64453-6.61133 5.94727-6.31836 6.39648-6.31836Z"/>
  </g>
  <g id="" transform="matrix(1 0 0 1 281.506 1933)">
   <path d="M11.709 2.91016C17.1582 2.91016 21.6699-1.61133 21.6699-7.05078C21.6699-12.5 17.1484-17.0117 11.6992-17.0117C6.25977-17.0117 1.74805-12.5 1.74805-7.05078C1.74805-1.61133 6.26953 2.91016 11.709 2.91016ZM11.709 1.25C7.09961 1.25 3.41797-2.44141 3.41797-7.05078C3.41797-11.6602 7.08984-15.3516 11.6992-15.3516C16.3086-15.3516 20-11.6602 20.0098-7.05078C20.0195-2.44141 16.3184 1.25 11.709 1.25ZM7.98828-6.23047L10.8789-6.23047L10.8789-3.32031C10.8789-2.83203 11.2109-2.5 11.6895-2.5C12.1777-2.5 12.5195-2.83203 12.5195-3.32031L12.5195-6.23047L15.4297-6.23047C15.918-6.23047 16.25-6.5625 16.25-7.04102C16.25-7.5293 15.918-7.87109 15.4297-7.87109L12.5195-7.87109L12.5195-10.7617C12.5195-11.2695 12.1777-11.6016 11.6895-11.6016C11.2109-11.6016 10.8789-11.2598 10.8789-10.7617L10.8789-7.87109L7.98828-7.87109C7.48047-7.87109 7.14844-7.5293 7.14844-7.04102C7.14844-6.5625 7.49023-6.23047 7.98828-6.23047Z"/>
  </g>
  <g id="" transform="matrix(1 0 0 1 304.924 1933)">
   <path d="M14.9707 5.66406C21.9336 5.66406 27.6953-0.0976562 27.6953-7.05078C27.6953-14.0137 21.9238-19.7754 14.9609-19.7754C8.00781-19.7754 2.25586-14.0137 2.25586-7.05078C2.25586-0.0976562 8.01758 5.66406 14.9707 5.66406ZM14.9707 3.84766C8.93555 3.84766 4.08203-1.01562 4.08203-7.05078C4.08203-13.0957 8.92578-17.9492 14.9609-17.9492C21.0059-17.9492 25.8594-13.0957 25.8691-7.05078C25.8789-1.01562 21.0156 3.84766 14.9707 3.84766ZM10.0586-6.14258L14.0625-6.14258L14.0625-2.12891C14.0625-1.5918 14.4336-1.2207 14.9512-1.2207C15.4883-1.2207 15.8594-1.5918 15.8594-2.12891L15.8594-6.14258L19.8828-6.14258C20.4102-6.14258 20.791-6.51367 20.791-7.03125C20.791-7.56836 20.4199-7.94922 19.8828-7.94922L15.8594-7.94922L15.8594-11.9531C15.8594-12.5098 15.4883-12.8809 14.9512-12.8809C14.4336-12.8809 14.0625-12.5 14.0625-11.9531L14.0625-7.94922L10.0586-7.94922C9.50195-7.94922 9.13086-7.56836 9.13086-7.03125C9.13086-6.51367 9.51172-6.14258 10.0586-6.14258Z"/>
  </g>
  <text style="stroke:none;fill:black;font-family:-apple-system,&quot;SF Pro Display&quot;,&quot;SF Pro Text&quot;,Helvetica,sans-serif;font-weight:bold;" transform="matrix(1 0 0 1 263 1953)">Design Variations</text>
  <text style="stroke:none;fill:black;font-family:-apple-system,&quot;SF Pro Display&quot;,&quot;SF Pro Text&quot;,Helvetica,sans-serif;" transform="matrix(1 0 0 1 263 1971)">Symbols are supported in up to nine weights and three scales.</text>
  <text style="stroke:none;fill:black;font-family:-apple-system,&quot;SF Pro Display&quot;,&quot;SF Pro Text&quot;,Helvetica,sans-serif;" transform="matrix(1 0 0 1 263 1989)">For optimal layout with text and other symbols, vertically align</text>
  <text style="stroke:none;fill:black;font-family:-apple-system,&quot;SF Pro Display&quot;,&quot;SF Pro Text&quot;,Helvetica,sans-serif;" transform="matrix(1 0 0 1 263 2007)">symbols with the adjacent text.</text>
  <line id="" style="fill:none;stroke:#00AEEF;stroke-width:0.5;opacity:1.0;" x1="776" x2="776" y1="1919" y2="1933"/>
  <g id="" transform="matrix(1 0 0 1 776 1933)">
   <path d="M3.31055 0.126953C3.82812 0.126953 4.08203-0.0683594 4.26758-0.605469L5.52734-4.0625L11.2891-4.0625L12.5488-0.605469C12.7344-0.0683594 12.9883 0.126953 13.4961 0.126953C14.0137 0.126953 14.3457-0.185547 14.3457-0.673828C14.3457-0.839844 14.3164-0.986328 14.2383-1.20117L9.6582-13.3887C9.43359-13.9941 9.0332-14.2871 8.4082-14.2871C7.80273-14.2871 7.39258-13.9941 7.17773-13.3984L2.59766-1.19141C2.51953-0.976562 2.49023-0.830078 2.49023-0.664062C2.49023-0.175781 2.80273 0.126953 3.31055 0.126953ZM6.00586-5.53711L8.37891-12.1094L8.42773-12.1094L10.8008-5.53711Z"/>
  </g>
  <line id="" style="fill:none;stroke:#00AEEF;stroke-width:0.5;opacity:1.0;" x1="792.836" x2="792.836" y1="1919" y2="1933"/>
  <text style="stroke:none;fill:black;font-family:-apple-system,&quot;SF Pro Display&quot;,&quot;SF Pro Text&quot;,Helvetica,sans-serif;font-weight:bold;" transform="matrix(1 0 0 1 776 1953)">Margins</text>
  <text style="stroke:none;fill:black;font-family:-apple-system,&quot;SF Pro Display&quot;,&quot;SF Pro Text&quot;,Helvetica,sans-serif;" transform="matrix(1 0 0 1 776 1971)">Leading and trailing margins on the left and right side of each symbol</text>
  <text style="stroke:none;fill:black;font-family:-apple-system,&quot;SF Pro Display&quot;,&quot;SF Pro Text&quot;,Helvetica,sans-serif;" transform="matrix(1 0 0 1 776 1989)">can be adjusted by modifying the x-location of the margin guidelines.</text>
  <text style="stroke:none;fill:black;font-family:-apple-system,&quot;SF Pro Display&quot;,&quot;SF Pro Text&quot;,Helvetica,sans-serif;" transform="matrix(1 0 0 1 776 2007)">Modifications are automatically applied proportionally to all</text>
  <text style="stroke:none;fill:black;font-family:-apple-system,&quot;SF Pro Display&quot;,&quot;SF Pro Text&quot;,Helvetica,sans-serif;" transform="matrix(1 0 0 1 776 2025)">scales and weights.</text>
  <g id="" transform="matrix(1 0 0 1 1289 1933)">
   <path d="M2.8418 1.86523L4.54102 3.57422C5.40039 4.44336 6.38672 4.38477 7.31445 3.35938L17.4902-7.85156C17.7539-7.76367 18.0273-7.7832 18.3398-7.8418L19.4043-8.03711L20.0684-7.36328L20.0293-6.80664C19.9902-6.30859 20.1172-5.92773 20.6055-5.44922L21.3672-4.70703C21.8457-4.22852 22.4609-4.19922 22.9297-4.66797L25.8398-7.58789C26.3086-8.05664 26.2891-8.65234 25.8105-9.13086L25.0391-9.89258C24.5605-10.3711 24.1895-10.5273 23.7109-10.4883L23.1348-10.4395L22.4902-11.0742L22.7344-12.1973C22.8613-12.7637 22.7051-13.2031 22.1191-13.7891L19.9219-15.9766C16.582-19.2969 12.1484-19.2188 9.25781-16.3281C8.83789-15.918 8.80859-15.3418 9.04297-14.9512C9.27734-14.5898 9.73633-14.3555 10.3809-14.5215C11.8457-14.8633 13.3691-14.9219 14.7949-13.9844L14.209-12.5293C14.0137-12.0508 13.9844-11.6504 14.1113-11.2891L3.04688-0.898438C2.06055 0.0195312 1.98242 0.996094 2.8418 1.86523ZM10.752-15.957C13.1836-17.7344 16.4746-17.4316 18.7012-15.2051L21.1328-12.793C21.3672-12.5586 21.4062-12.373 21.3379-12.0312L21.0156-10.5469L22.5195-9.0625L23.5059-9.12109C23.7598-9.13086 23.8379-9.11133 24.0332-8.91602L24.6094-8.33984L22.168-5.89844L21.5918-6.47461C21.3965-6.66992 21.3672-6.74805 21.377-7.01172L21.4453-7.98828L19.9512-9.47266L18.4277-9.21875C18.1055-9.15039 17.959-9.17969 17.7148-9.41406L15.7129-11.416C15.459-11.6504 15.4297-11.8164 15.5859-12.1875L16.4648-14.2773C14.9023-15.7324 12.8711-16.3574 10.8398-15.7617C10.6836-15.7227 10.625-15.8496 10.752-15.957ZM5.27344 2.30469L4.10156 1.14258C3.63281 0.683594 3.74023 0.341797 4.14062-0.0195312L14.9512-10.1953L16.416-8.71094L6.42578 2.27539C6.07422 2.67578 5.74219 2.77344 5.27344 2.30469Z"/>
  </g>
  <text style="stroke:none;fill:black;font-family:-apple-system,&quot;SF Pro Display&quot;,&quot;SF Pro Text&quot;,Helvetica,sans-serif;font-weight:bold;" transform="matrix(1 0 0 1 1289 1953)">Exporting</text>
  <text style="stroke:none;fill:black;font-family:-apple-system,&quot;SF Pro Display&quot;,&quot;SF Pro Text&quot;,Helvetica,sans-serif;" transform="matrix(1 0 0 1 1289 1971)">Symbols should be outlined when exporting to ensure the</text>
  <text style="stroke:none;fill:black;font-family:-apple-system,&quot;SF Pro Display&quot;,&quot;SF Pro Text&quot;,Helvetica,sans-serif;" transform="matrix(1 0 0 1 1289 1989)">design is preserved when submitting to Xcode.</text>
  <text id="template-version" style="stroke:none;fill:black;font-family:-apple-system,&quot;SF Pro Display&quot;,&quot;SF Pro Text&quot;,Helvetica,sans-serif;text-anchor:end;" transform="matrix(1 0 0 1 3036 1933)">Template v.2.0</text>
  <text style="stroke:none;fill:black;font-family:-apple-system,&quot;SF Pro Display&quot;,&quot;SF Pro Text&quot;,Helvetica,sans-serif;text-anchor:end;" transform="matrix(1 0 0 1 3036 1951)">Requires Xcode 12 or greater</text>
  <text style="stroke:none;fill:black;font-family:-apple-system,&quot;SF Pro Display&quot;,&quot;SF Pro Text&quot;,Helvetica,sans-serif;" transform="matrix(1 0 0 1 263 726)">Small</text>
  <text style="stroke:none;fill:black;font-family:-apple-system,&quot;SF Pro Display&quot;,&quot;SF Pro Text&quot;,Helvetica,sans-serif;" transform="matrix(1 0 0 1 263 1156)">Medium</text>
  <text style="stroke:none;fill:black;font-family:-apple-system,&quot;SF Pro Display&quot;,&quot;SF Pro Text&quot;,Helvetica,sans-serif;" transform="matrix(1 0 0 1 263 1586)">Large</text>
 </g>
 <g id="Guides">
  <g id="H-reference" style="fill:#27AAE1;stroke:none;" transform="matrix(1 0 0 1 339 696)">
   <path d="M0.976562 0L3.66211 0L12.9883-24.4629L45.752-24.4629L55.127 0L57.7637 0L30.6152-70.459L28.125-70.459ZM29.3457-67.1387L29.4434-67.1387L44.873-26.709L13.8672-26.709Z"/>
  </g>
  <line id="Baseline-S" style="fill:none;stroke:#27AAE1;opacity:1;stroke-width:0.5;" x1="263" x2="3036" y1="696" y2="696"/>
  <line id="Capline-S" style="fill:none;stroke:#27AAE1;opacity:1;stroke-width:0.5;" x1="263" x2="3036" y1="625.541" y2="625.541"/>
  <g id="H-reference" style="fill:#27AAE1;stroke:none;" transform="matrix(1 0 0 1 339 1126)">
   <path d="M0.976562 0L3.66211 0L12.9883-24.4629L45.752-24.4629L55.127 0L57.7637 0L30.6152-70.459L28.125-70.459ZM29.3457-67.1387L29.4434-67.1387L44.873-26.709L13.8672-26.709Z"/>
  </g>
  <line id="Baseline-M" style="fill:none;stroke:#27AAE1;opacity:1;stroke-width:0.5;" x1="263" x2="3036" y1="1126" y2="1126"/>
  <line id="Capline-M" style="fill:none;stroke:#27AAE1;opacity:1;stroke-width:0.5;" x1="263" x2="3036" y1="1055.54" y2="1055.54"/>
  <g id="H-reference" style="fill:#27AAE1;stroke:none;" transform="matrix(1 0 0 1 339 1556)">
   <path d="M0.976562 0L3.66211 0L12.9883-24.4629L45.752-24.4629L55.127 0L57.7637 0L30.6152-70.459L28.125-70.459ZM29.3457-67.1387L29.4434-67.1387L44.873-26.709L13.8672-26.709Z"/>
  </g>
  <line id="Baseline-L" style="fill:none;stroke:#27AAE1;opacity:1;stroke-width:0.5;" x1="263" x2="3036" y1="1556" y2="1556"/>
  <line id="Capline-L" style="fill:none;stroke:#27AAE1;opacity:1;stroke-width:0.5;" x1="263" x2="3036" y1="1485.54" y2="1485.54"/>
  <line id="left-margin" x1="1388.2193205915178" x2="1388.2193205915178" y1="1030.79" y2="1150.12" style="fill:none;stroke:#00AEEF;stroke-width:0.5;opacity:1.0;"/>
  <line id="right-margin" x1="1514.040679408482" x2="1514.040679408482" y1="1030.79" y2="1150.12" style="fill:none;stroke:#00AEEF;stroke-width:0.5;opacity:1.0;"/>
 </g>
 <g id="Symbols">
  <g id="Black-L" transform="matrix(1.0,0.0,0.0,1.0,2853.525223563058,1439.615243094308)">  <path stroke-miterlimit="4" fill-rule="nonzero" fill="#000000" stroke-width="1px" stroke-dasharray="none" stroke-linecap="butt" stroke-linejoin="miter" stroke="none" enable-background="new 0 0 512 512" stroke-opacity="1" fill-opacity="1" d="M160.82,133.43L150.897,123.507L131.908,142.496L141.799,152.387C142.782,153.37,144.081,153.877,145.381,153.877C146.681,153.877,147.981,153.37,148.963,152.387L160.82,140.563C161.771,139.612,162.31,138.312,162.31,136.98C162.31,135.681,161.771,134.381,160.82,133.43ZM143.764,116.375L131.401,104.011L143.352,92.06C145.318,90.094,145.318,86.861,143.352,84.896L137.202,78.745C135.237,76.78,132.003,76.748,130.038,78.745C128.072,80.711,128.041,83.944,130.038,85.91L132.606,88.478L129.119,91.965C102.299,65.146,75.512,38.358,48.693,11.539C47.837,10.683,46.696,10.144,45.459,10.081L22.191,8.401C20.733,8.306,19.274,8.845,18.26,9.859C17.214,10.905,16.675,12.332,16.802,13.79L18.45,37.059C18.545,38.263,19.052,39.436,19.908,40.292C46.727,67.111,73.515,93.835,100.334,120.654L96.847,124.141L94.279,121.574C92.314,119.608,89.08,119.608,87.115,121.574C85.149,123.539,85.149,126.773,87.115,128.738L93.265,134.888C94.216,135.839,95.515,136.378,96.847,136.378C98.178,136.378,99.478,135.839,100.429,134.888L112.38,122.937L124.775,135.332ZM117.072,65.621L142.401,40.292C143.257,39.436,143.796,38.295,143.86,37.059L145.508,13.79C145.603,12.332,145.064,10.873,144.05,9.859C143.004,8.813,141.577,8.274,140.119,8.401L116.85,10.049C115.646,10.144,114.504,10.652,113.617,11.507L88.288,36.837ZM45.237,79.887L33.128,91.997L29.641,88.509L32.208,85.942C34.174,83.976,34.174,80.743,32.208,78.777C30.243,76.812,27.009,76.812,25.044,78.777L18.894,84.927C16.928,86.893,16.928,90.126,18.894,92.092L30.845,104.043L18.513,116.375L37.502,135.364L49.866,123L61.817,134.952C62.768,135.903,64.068,136.441,65.399,136.441C66.731,136.441,68.031,135.903,68.982,134.952L75.132,128.802C77.097,126.836,77.097,123.603,75.132,121.637C73.166,119.672,69.933,119.672,67.967,121.637L65.399,124.205L61.912,120.718L73.99,108.64ZM11.381,123.507L1.49,133.43C-0.476,135.395,-0.476,138.629,1.49,140.594L13.314,152.419C14.265,153.37,15.565,153.909,16.897,153.909C18.228,153.909,19.528,153.37,20.479,152.419L30.37,142.496ZM11.381,123.507"/>
</g>
  <g id="Heavy-L" transform="matrix(1.0,0.0,0.0,1.0,2556.8152235630578,1439.615243094308)">  <path stroke-linejoin="miter" stroke-miterlimit="4" stroke-linecap="butt" fill="#000000" enable-background="new 0 0 512 512" fill-rule="nonzero" stroke-width="1px" fill-opacity="1" stroke="none" stroke-dasharray="none" stroke-opacity="1" d="M160.82,133.43L150.897,123.507L131.908,142.496L141.799,152.387C142.782,153.37,144.081,153.877,145.381,153.877C146.681,153.877,147.981,153.37,148.963,152.387L160.82,140.563C161.771,139.612,162.31,138.312,162.31,136.98C162.31,135.681,161.771,134.381,160.82,133.43ZM143.764,116.375L131.401,104.011L143.352,92.06C145.318,90.094,145.318,86.861,143.352,84.896L137.202,78.745C135.237,76.78,132.003,76.748,130.038,78.745C128.072,80.711,128.041,83.944,130.038,85.91L132.606,88.478L129.119,91.965C102.299,65.146,75.512,38.358,48.693,11.539C47.837,10.683,46.696,10.144,45.459,10.081L22.191,8.401C20.733,8.306,19.274,8.845,18.26,9.859C17.214,10.905,16.675,12.332,16.802,13.79L18.45,37.059C18.545,38.263,19.052,39.436,19.908,40.292C46.727,67.111,73.515,93.835,100.334,120.654L96.847,124.141L94.279,121.574C92.314,119.608,89.08,119.608,87.115,121.574C85.149,123.539,85.149,126.773,87.115,128.738L93.265,134.888C94.216,135.839,95.515,136.378,96.847,136.378C98.178,136.378,99.478,135.839,100.429,134.888L112.38,122.937L124.775,135.332ZM117.072,65.621L142.401,40.292C143.257,39.436,143.796,38.295,143.86,37.059L145.508,13.79C145.603,12.332,145.064,10.873,144.05,9.859C143.004,8.813,141.577,8.274,140.119,8.401L116.85,10.049C115.646,10.144,114.504,10.652,113.617,11.507L88.288,36.837ZM45.237,79.887L33.128,91.997L29.641,88.509L32.208,85.942C34.174,83.976,34.174,80.743,32.208,78.777C30.243,76.812,27.009,76.812,25.044,78.777L18.894,84.927C16.928,86.893,16.928,90.126,18.894,92.092L30.845,104.043L18.513,116.375L37.502,135.364L49.866,123L61.817,134.952C62.768,135.903,64.068,136.441,65.399,136.441C66.731,136.441,68.031,135.903,68.982,134.952L75.132,128.802C77.097,126.836,77.097,123.603,75.132,121.637C73.166,119.672,69.933,119.672,67.967,121.637L65.399,124.205L61.912,120.718L73.99,108.64ZM11.381,123.507L1.49,133.43C-0.476,135.395,-0.476,138.629,1.49,140.594L13.314,152.419C14.265,153.37,15.565,153.909,16.897,153.909C18.228,153.909,19.528,153.37,20.479,152.419L30.37,142.496ZM11.381,123.507"/>
</g>
  <g id="Bold-L" transform="matrix(1.0,0.0,0.0,1.0,2260.1052235630577,1439.615243094308)">  <path stroke-linejoin="miter" stroke-linecap="butt" stroke-width="1px" fill-opacity="1" stroke-dasharray="none" stroke-opacity="1" enable-background="new 0 0 512 512" stroke-miterlimit="4" fill="#000000" fill-rule="nonzero" stroke="none" d="M160.82,133.43L150.897,123.507L131.908,142.496L141.799,152.387C142.782,153.37,144.081,153.877,145.381,153.877C146.681,153.877,147.981,153.37,148.963,152.387L160.82,140.563C161.771,139.612,162.31,138.312,162.31,136.98C162.31,135.681,161.771,134.381,160.82,133.43ZM143.764,116.375L131.401,104.011L143.352,92.06C145.318,90.094,145.318,86.861,143.352,84.896L137.202,78.745C135.237,76.78,132.003,76.748,130.038,78.745C128.072,80.711,128.041,83.944,130.038,85.91L132.606,88.478L129.119,91.965C102.299,65.146,75.512,38.358,48.693,11.539C47.837,10.683,46.696,10.144,45.459,10.081L22.191,8.401C20.733,8.306,19.274,8.845,18.26,9.859C17.214,10.905,16.675,12.332,16.802,13.79L18.45,37.059C18.545,38.263,19.052,39.436,19.908,40.292C46.727,67.111,73.515,93.835,100.334,120.654L96.847,124.141L94.279,121.574C92.314,119.608,89.08,119.608,87.115,121.574C85.149,123.539,85.149,126.773,87.115,128.738L93.265,134.888C94.216,135.839,95.515,136.378,96.847,136.378C98.178,136.378,99.478,135.839,100.429,134.888L112.38,122.937L124.775,135.332ZM117.072,65.621L142.401,40.292C143.257,39.436,143.796,38.295,143.86,37.059L145.508,13.79C145.603,12.332,145.064,10.873,144.05,9.859C143.004,8.813,141.577,8.274,140.119,8.401L116.85,10.049C115.646,10.144,114.504,10.652,113.617,11.507L88.288,36.837ZM45.237,79.887L33.128,91.997L29.641,88.509L32.208,85.942C34.174,83.976,34.174,80.743,32.208,78.777C30.243,76.812,27.009,76.812,25.044,78.777L18.894,84.927C16.928,86.893,16.928,90.126,18.894,92.092L30.845,104.043L18.513,116.375L37.502,135.364L49.866,123L61.817,134.952C62.768,135.903,64.068,136.441,65.399,136.441C66.731,136.441,68.031,135.903,68.982,134.952L75.132,128.802C77.097,126.836,77.097,123.603,75.132,121.637C73.166,119.672,69.933,119.672,67.967,121.637L65.399,124.205L61.912,120.718L73.99,108.64ZM11.381,123.507L1.49,133.43C-0.476,135.395,-0.476,138.629,1.49,140.594L13.314,152.419C14.265,153.37,15.565,153.909,16.897,153.909C18.228,153.909,19.528,153.37,20.479,152.419L30.37,142.496ZM11.381,123.507"/>
</g>
  <g id="Semibold-L" transform="matrix(1.0,0.0,0.0,1.0,1963.395223563058,1439.615243094308)">  <path stroke-dasharray="none" stroke="none" fill="#000000" stroke-width="1px" stroke-miterlimit="4" fill-rule="nonzero" enable-background="new 0 0 512 512" stroke-linejoin="miter" stroke-opacity="1" fill-opacity="1" stroke-linecap="butt" d="M160.82,133.43L150.897,123.507L131.908,142.496L141.799,152.387C142.782,153.37,144.081,153.877,145.381,153.877C146.681,153.877,147.981,153.37,148.963,152.387L160.82,140.563C161.771,139.612,162.31,138.312,162.31,136.98C162.31,135.681,161.771,134.381,160.82,133.43ZM143.764,116.375L131.401,104.011L143.352,92.06C145.318,90.094,145.318,86.861,143.352,84.896L137.202,78.745C135.237,76.78,132.003,76.748,130.038,78.745C128.072,80.711,128.041,83.944,130.038,85.91L132.606,88.478L129.119,91.965C102.299,65.146,75.512,38.358,48.693,11.539C47.837,10.683,46.696,10.144,45.459,10.081L22.191,8.401C20.733,8.306,19.274,8.845,18.26,9.859C17.214,10.905,16.675,12.332,16.802,13.79L18.45,37.059C18.545,38.263,19.052,39.436,19.908,40.292C46.727,67.111,73.515,93.835,100.334,120.654L96.847,124.141L94.279,121.574C92.314,119.608,89.08,119.608,87.115,121.574C85.149,123.539,85.149,126.773,87.115,128.738L93.265,134.888C94.216,135.839,95.515,136.378,96.847,136.378C98.178,136.378,99.478,135.839,100.429,134.888L112.38,122.937L124.775,135.332ZM117.072,65.621L142.401,40.292C143.257,39.436,143.796,38.295,143.86,37.059L145.508,13.79C145.603,12.332,145.064,10.873,144.05,9.859C143.004,8.813,141.577,8.274,140.119,8.401L116.85,10.049C115.646,10.144,114.504,10.652,113.617,11.507L88.288,36.837ZM45.237,79.887L33.128,91.997L29.641,88.509L32.208,85.942C34.174,83.976,34.174,80.743,32.208,78.777C30.243,76.812,27.009,76.812,25.044,78.777L18.894,84.927C16.928,86.893,16.928,90.126,18.894,92.092L30.845,104.043L18.513,116.375L37.502,135.364L49.866,123L61.817,134.952C62.768,135.903,64.068,136.441,65.399,136.441C66.731,136.441,68.031,135.903,68.982,134.952L75.132,128.802C77.097,126.836,77.097,123.603,75.132,121.637C73.166,119.672,69.933,119.672,67.967,121.637L65.399,124.205L61.912,120.718L73.99,108.64ZM11.381,123.507L1.49,133.43C-0.476,135.395,-0.476,138.629,1.49,140.594L13.314,152.419C14.265,153.37,15.565,153.909,16.897,153.909C18.228,153.909,19.528,153.37,20.479,152.419L30.37,142.496ZM11.381,123.507"/>
</g>
  <g id="Medium-L" transform="matrix(1.0,0.0,0.0,1.0,1666.685223563058,1439.615243094308)">  <path stroke="none" stroke-linecap="butt" fill-rule="nonzero" stroke-opacity="1" stroke-miterlimit="4" stroke-dasharray="none" fill="#000000" enable-background="new 0 0 512 512" stroke-linejoin="miter" fill-opacity="1" stroke-width="1px" d="M160.82,133.43L150.897,123.507L131.908,142.496L141.799,152.387C142.782,153.37,144.081,153.877,145.381,153.877C146.681,153.877,147.981,153.37,148.963,152.387L160.82,140.563C161.771,139.612,162.31,138.312,162.31,136.98C162.31,135.681,161.771,134.381,160.82,133.43ZM143.764,116.375L131.401,104.011L143.352,92.06C145.318,90.094,145.318,86.861,143.352,84.896L137.202,78.745C135.237,76.78,132.003,76.748,130.038,78.745C128.072,80.711,128.041,83.944,130.038,85.91L132.606,88.478L129.119,91.965C102.299,65.146,75.512,38.358,48.693,11.539C47.837,10.683,46.696,10.144,45.459,10.081L22.191,8.401C20.733,8.306,19.274,8.845,18.26,9.859C17.214,10.905,16.675,12.332,16.802,13.79L18.45,37.059C18.545,38.263,19.052,39.436,19.908,40.292C46.727,67.111,73.515,93.835,100.334,120.654L96.847,124.141L94.279,121.574C92.314,119.608,89.08,119.608,87.115,121.574C85.149,123.539,85.149,126.773,87.115,128.738L93.265,134.888C94.216,135.839,95.515,136.378,96.847,136.378C98.178,136.378,99.478,135.839,100.429,134.888L112.38,122.937L124.775,135.332ZM117.072,65.621L142.401,40.292C143.257,39.436,143.796,38.295,143.86,37.059L145.508,13.79C145.603,12.332,145.064,10.873,144.05,9.859C143.004,8.813,141.577,8.274,140.119,8.401L116.85,10.049C115.646,10.144,114.504,10.652,113.617,11.507L88.288,36.837ZM45.237,79.887L33.128,91.997L29.641,88.509L32.208,85.942C34.174,83.976,34.174,80.743,32.208,78.777C30.243,76.812,27.009,76.812,25.044,78.777L18.894,84.927C16.928,86.893,16.928,90.126,18.894,92.092L30.845,104.043L18.513,116.375L37.502,135.364L49.866,123L61.817,134.952C62.768,135.903,64.068,136.441,65.399,136.441C66.731,136.441,68.031,135.903,68.982,134.952L75.132,128.802C77.097,126.836,77.097,123.603,75.132,121.637C73.166,119.672,69.933,119.672,67.967,121.637L65.399,124.205L61.912,120.718L73.99,108.64ZM11.381,123.507L1.49,133.43C-0.476,135.395,-0.476,138.629,1.49,140.594L13.314,152.419C14.265,153.37,15.565,153.909,16.897,153.909C18.228,153.909,19.528,153.37,20.479,152.419L30.37,142.496ZM11.381,123.507"/>
</g>
  <g id="Regular-L" transform="matrix(1.0,0.0,0.0,1.0,1369.9752235630579,1439.615243094308)">  <path stroke-linecap="butt" stroke-width="1px" fill="#000000" enable-background="new 0 0 512 512" stroke-opacity="1" stroke-dasharray="none" stroke-miterlimit="4" stroke="none" fill-rule="nonzero" stroke-linejoin="miter" fill-opacity="1" d="M160.82,133.43L150.897,123.507L131.908,142.496L141.799,152.387C142.782,153.37,144.081,153.877,145.381,153.877C146.681,153.877,147.981,153.37,148.963,152.387L160.82,140.563C161.771,139.612,162.31,138.312,162.31,136.98C162.31,135.681,161.771,134.381,160.82,133.43ZM143.764,116.375L131.401,104.011L143.352,92.06C145.318,90.094,145.318,86.861,143.352,84.896L137.202,78.745C135.237,76.78,132.003,76.748,130.038,78.745C128.072,80.711,128.041,83.944,130.038,85.91L132.606,88.478L129.119,91.965C102.299,65.146,75.512,38.358,48.693,11.539C47.837,10.683,46.696,10.144,45.459,10.081L22.191,8.401C20.733,8.306,19.274,8.845,18.26,9.859C17.214,10.905,16.675,12.332,16.802,13.79L18.45,37.059C18.545,38.263,19.052,39.436,19.908,40.292C46.727,67.111,73.515,93.835,100.334,120.654L96.847,124.141L94.279,121.574C92.314,119.608,89.08,119.608,87.115,121.574C85.149,123.539,85.149,126.773,87.115,128.738L93.265,134.888C94.216,135.839,95.515,136.378,96.847,136.378C98.178,136.378,99.478,135.839,100.429,134.888L112.38,122.937L124.775,135.332ZM117.072,65.621L142.401,40.292C143.257,39.436,143.796,38.295,143.86,37.059L145.508,13.79C145.603,12.332,145.064,10.873,144.05,9.859C143.004,8.813,141.577,8.274,140.119,8.401L116.85,10.049C115.646,10.144,114.504,10.652,113.617,11.507L88.288,36.837ZM45.237,79.887L33.128,91.997L29.641,88.509L32.208,85.942C34.174,83.976,34.174,80.743,32.208,78.777C30.243,76.812,27.009,76.812,25.044,78.777L18.894,84.927C16.928,86.893,16.928,90.126,18.894,92.092L30.845,104.043L18.513,116.375L37.502,135.364L49.866,123L61.817,134.952C62.768,135.903,64.068,136.441,65.399,136.441C66.731,136.441,68.031,135.903,68.982,134.952L75.132,128.802C77.097,126.836,77.097,123.603,75.132,121.637C73.166,119.672,69.933,119.672,67.967,121.637L65.399,124.205L61.912,120.718L73.99,108.64ZM11.381,123.507L1.49,133.43C-0.476,135.395,-0.476,138.629,1.49,140.594L13.314,152.419C14.265,153.37,15.565,153.909,16.897,153.909C18.228,153.909,19.528,153.37,20.479,152.419L30.37,142.496ZM11.381,123.507"/>
</g>
  <g id="Light-L" transform="matrix(1.0,0.0,0.0,1.0,1073.265223563058,1439.615243094308)">  <path fill="#000000" stroke="none" stroke-dasharray="none" stroke-linecap="butt" fill-rule="nonzero" fill-opacity="1" enable-background="new 0 0 512 512" stroke-width="1px" stroke-linejoin="miter" stroke-opacity="1" stroke-miterlimit="4" d="M160.82,133.43L150.897,123.507L131.908,142.496L141.799,152.387C142.782,153.37,144.081,153.877,145.381,153.877C146.681,153.877,147.981,153.37,148.963,152.387L160.82,140.563C161.771,139.612,162.31,138.312,162.31,136.98C162.31,135.681,161.771,134.381,160.82,133.43ZM143.764,116.375L131.401,104.011L143.352,92.06C145.318,90.094,145.318,86.861,143.352,84.896L137.202,78.745C135.237,76.78,132.003,76.748,130.038,78.745C128.072,80.711,128.041,83.944,130.038,85.91L132.606,88.478L129.119,91.965C102.299,65.146,75.512,38.358,48.693,11.539C47.837,10.683,46.696,10.144,45.459,10.081L22.191,8.401C20.733,8.306,19.274,8.845,18.26,9.859C17.214,10.905,16.675,12.332,16.802,13.79L18.45,37.059C18.545,38.263,19.052,39.436,19.908,40.292C46.727,67.111,73.515,93.835,100.334,120.654L96.847,124.141L94.279,121.574C92.314,119.608,89.08,119.608,87.115,121.574C85.149,123.539,85.149,126.773,87.115,128.738L93.265,134.888C94.216,135.839,95.515,136.378,96.847,136.378C98.178,136.378,99.478,135.839,100.429,134.888L112.38,122.937L124.775,135.332ZM117.072,65.621L142.401,40.292C143.257,39.436,143.796,38.295,143.86,37.059L145.508,13.79C145.603,12.332,145.064,10.873,144.05,9.859C143.004,8.813,141.577,8.274,140.119,8.401L116.85,10.049C115.646,10.144,114.504,10.652,113.617,11.507L88.288,36.837ZM45.237,79.887L33.128,91.997L29.641,88.509L32.208,85.942C34.174,83.976,34.174,80.743,32.208,78.777C30.243,76.812,27.009,76.812,25.044,78.777L18.894,84.927C16.928,86.893,16.928,90.126,18.894,92.092L30.845,104.043L18.513,116.375L37.502,135.364L49.866,123L61.817,134.952C62.768,135.903,64.068,136.441,65.399,136.441C66.731,136.441,68.031,135.903,68.982,134.952L75.132,128.802C77.097,126.836,77.097,123.603,75.132,121.637C73.166,119.672,69.933,119.672,67.967,121.637L65.399,124.205L61.912,120.718L73.99,108.64ZM11.381,123.507L1.49,133.43C-0.476,135.395,-0.476,138.629,1.49,140.594L13.314,152.419C14.265,153.37,15.565,153.909,16.897,153.909C18.228,153.909,19.528,153.37,20.479,152.419L30.37,142.496ZM11.381,123.507"/>
</g>
  <g id="Thin-L" transform="matrix(1.0,0.0,0.0,1.0,776.5552235630581,1439.615243094308)">  <path stroke-dasharray="none" stroke-width="1px" stroke-linecap="butt" stroke-linejoin="miter" stroke-opacity="1" fill="#000000" fill-opacity="1" fill-rule="nonzero" stroke="none" enable-background="new 0 0 512 512" stroke-miterlimit="4" d="M160.82,133.43L150.897,123.507L131.908,142.496L141.799,152.387C142.782,153.37,144.081,153.877,145.381,153.877C146.681,153.877,147.981,153.37,148.963,152.387L160.82,140.563C161.771,139.612,162.31,138.312,162.31,136.98C162.31,135.681,161.771,134.381,160.82,133.43ZM143.764,116.375L131.401,104.011L143.352,92.06C145.318,90.094,145.318,86.861,143.352,84.896L137.202,78.745C135.237,76.78,132.003,76.748,130.038,78.745C128.072,80.711,128.041,83.944,130.038,85.91L132.606,88.478L129.119,91.965C102.299,65.146,75.512,38.358,48.693,11.539C47.837,10.683,46.696,10.144,45.459,10.081L22.191,8.401C20.733,8.306,19.274,8.845,18.26,9.859C17.214,10.905,16.675,12.332,16.802,13.79L18.45,37.059C18.545,38.263,19.052,39.436,19.908,40.292C46.727,67.111,73.515,93.835,100.334,120.654L96.847,124.141L94.279,121.574C92.314,119.608,89.08,119.608,87.115,121.574C85.149,123.539,85.149,126.773,87.115,128.738L93.265,134.888C94.216,135.839,95.515,136.378,96.847,136.378C98.178,136.378,99.478,135.839,100.429,134.888L112.38,122.937L124.775,135.332ZM117.072,65.621L142.401,40.292C143.257,39.436,143.796,38.295,143.86,37.059L145.508,13.79C145.603,12.332,145.064,10.873,144.05,9.859C143.004,8.813,141.577,8.274,140.119,8.401L116.85,10.049C115.646,10.144,114.504,10.652,113.617,11.507L88.288,36.837ZM45.237,79.887L33.128,91.997L29.641,88.509L32.208,85.942C34.174,83.976,34.174,80.743,32.208,78.777C30.243,76.812,27.009,76.812,25.044,78.777L18.894,84.927C16.928,86.893,16.928,90.126,18.894,92.092L30.845,104.043L18.513,116.375L37.502,135.364L49.866,123L61.817,134.952C62.768,135.903,64.068,136.441,65.399,136.441C66.731,136.441,68.031,135.903,68.982,134.952L75.132,128.802C77.097,126.836,77.097,123.603,75.132,121.637C73.166,119.672,69.933,119.672,67.967,121.637L65.399,124.205L61.912,120.718L73.99,108.64ZM11.381,123.507L1.49,133.43C-0.476,135.395,-0.476,138.629,1.49,140.594L13.314,152.419C14.265,153.37,15.565,153.909,16.897,153.909C18.228,153.909,19.528,153.37,20.479,152.419L30.37,142.496ZM11.381,123.507"/>
</g>
  <g id="Ultralight-L" transform="matrix(1.0,0.0,0.0,1.0,479.845223563058,1439.615243094308)">  <path stroke="none" stroke-dasharray="none" fill="#000000" fill-rule="nonzero" stroke-width="1px" stroke-miterlimit="4" stroke-linecap="butt" enable-background="new 0 0 512 512" stroke-linejoin="miter" stroke-opacity="1" fill-opacity="1" d="M160.82,133.43L150.897,123.507L131.908,142.496L141.799,152.387C142.782,153.37,144.081,153.877,145.381,153.877C146.681,153.877,147.981,153.37,148.963,152.387L160.82,140.563C161.771,139.612,162.31,138.312,162.31,136.98C162.31,135.681,161.771,134.381,160.82,133.43ZM143.764,116.375L131.401,104.011L143.352,92.06C145.318,90.094,145.318,86.861,143.352,84.896L137.202,78.745C135.237,76.78,132.003,76.748,130.038,78.745C128.072,80.711,128.041,83.944,130.038,85.91L132.606,88.478L129.119,91.965C102.299,65.146,75.512,38.358,48.693,11.539C47.837,10.683,46.696,10.144,45.459,10.081L22.191,8.401C20.733,8.306,19.274,8.845,18.26,9.859C17.214,10.905,16.675,12.332,16.802,13.79L18.45,37.059C18.545,38.263,19.052,39.436,19.908,40.292C46.727,67.111,73.515,93.835,100.334,120.654L96.847,124.141L94.279,121.574C92.314,119.608,89.08,119.608,87.115,121.574C85.149,123.539,85.149,126.773,87.115,128.738L93.265,134.888C94.216,135.839,95.515,136.378,96.847,136.378C98.178,136.378,99.478,135.839,100.429,134.888L112.38,122.937L124.775,135.332ZM117.072,65.621L142.401,40.292C143.257,39.436,143.796,38.295,143.86,37.059L145.508,13.79C145.603,12.332,145.064,10.873,144.05,9.859C143.004,8.813,141.577,8.274,140.119,8.401L116.85,10.049C115.646,10.144,114.504,10.652,113.617,11.507L88.288,36.837ZM45.237,79.887L33.128,91.997L29.641,88.509L32.208,85.942C34.174,83.976,34.174,80.743,32.208,78.777C30.243,76.812,27.009,76.812,25.044,78.777L18.894,84.927C16.928,86.893,16.928,90.126,18.894,92.092L30.845,104.043L18.513,116.375L37.502,135.364L49.866,123L61.817,134.952C62.768,135.903,64.068,136.441,65.399,136.441C66.731,136.441,68.031,135.903,68.982,134.952L75.132,128.802C77.097,126.836,77.097,123.603,75.132,121.637C73.166,119.672,69.933,119.672,67.967,121.637L65.399,124.205L61.912,120.718L73.99,108.64ZM11.381,123.507L1.49,133.43C-0.476,135.395,-0.476,138.629,1.49,140.594L13.314,152.419C14.265,153.37,15.565,153.909,16.897,153.909C18.228,153.909,19.528,153.37,20.479,152.419L30.37,142.496ZM11.381,123.507"/>
</g>
  <g id="Black-M" transform="matrix(1.0,0.0,0.0,1.0,2871.7693205915175,1027.859340122768)">  <path stroke-miterlimit="4" fill-rule="nonzero" fill="#000000" stroke-width="1px" stroke-dasharray="none" stroke-linecap="butt" stroke-linejoin="miter" stroke="none" enable-background="new 0 0 512 512" stroke-opacity="1" fill-opacity="1" d="M124.666,103.434L116.975,95.742L102.254,110.462L109.922,118.13C110.683,118.891,111.691,119.285,112.699,119.285C113.706,119.285,114.714,118.891,115.475,118.13L124.666,108.963C125.404,108.226,125.821,107.218,125.821,106.186C125.821,105.179,125.404,104.171,124.666,103.434ZM111.445,90.213L101.861,80.629L111.126,71.364C112.649,69.841,112.649,67.334,111.126,65.81L106.358,61.043C104.835,59.519,102.328,59.495,100.805,61.043C99.281,62.567,99.256,65.073,100.805,66.597L102.795,68.587L100.092,71.291C79.302,50.501,58.536,29.735,37.746,8.945C37.083,8.282,36.198,7.864,35.24,7.815L17.202,6.512C16.072,6.439,14.941,6.856,14.155,7.643C13.344,8.454,12.926,9.559,13.024,10.69L14.302,28.728C14.376,29.661,14.769,30.571,15.433,31.234C36.223,52.024,56.988,72.74,77.778,93.53L75.075,96.234L73.085,94.243C71.561,92.72,69.054,92.72,67.531,94.243C66.007,95.767,66.007,98.273,67.531,99.797L72.298,104.564C73.035,105.302,74.043,105.719,75.075,105.719C76.107,105.719,77.115,105.302,77.852,104.564L87.117,95.3L96.725,104.908ZM90.754,50.869L110.389,31.234C111.052,30.571,111.47,29.686,111.519,28.728L112.797,10.69C112.871,9.559,112.453,8.429,111.666,7.643C110.855,6.832,109.75,6.414,108.619,6.512L90.582,7.79C89.648,7.864,88.763,8.257,88.075,8.921L68.44,28.556ZM35.068,61.928L25.68,71.315L22.977,68.612L24.968,66.621C26.491,65.098,26.491,62.591,24.968,61.068C23.444,59.544,20.937,59.544,19.414,61.068L14.646,65.835C13.123,67.359,13.123,69.865,14.646,71.389L23.911,80.653L14.351,90.213L29.072,104.933L38.656,95.349L47.92,104.614C48.657,105.351,49.665,105.769,50.697,105.769C51.729,105.769,52.737,105.351,53.474,104.614L58.242,99.846C59.765,98.323,59.765,95.816,58.242,94.292C56.718,92.769,54.211,92.769,52.688,94.292L50.697,96.283L47.994,93.58L57.357,84.217ZM8.822,95.742L1.155,103.434C-0.369,104.958,-0.369,107.464,1.155,108.988L10.321,118.154C11.059,118.891,12.066,119.309,13.098,119.309C14.13,119.309,15.138,118.891,15.875,118.154L23.542,110.462ZM8.822,95.742"/>
</g>
  <g id="Heavy-M" transform="matrix(1.0,0.0,0.0,1.0,2575.0593205915175,1027.859340122768)">  <path stroke-linejoin="miter" stroke-miterlimit="4" stroke-linecap="butt" fill="#000000" enable-background="new 0 0 512 512" fill-rule="nonzero" stroke-width="1px" fill-opacity="1" stroke="none" stroke-dasharray="none" stroke-opacity="1" d="M124.666,103.434L116.975,95.742L102.254,110.462L109.922,118.13C110.683,118.891,111.691,119.285,112.699,119.285C113.706,119.285,114.714,118.891,115.475,118.13L124.666,108.963C125.404,108.226,125.821,107.218,125.821,106.186C125.821,105.179,125.404,104.171,124.666,103.434ZM111.445,90.213L101.861,80.629L111.126,71.364C112.649,69.841,112.649,67.334,111.126,65.81L106.358,61.043C104.835,59.519,102.328,59.495,100.805,61.043C99.281,62.567,99.256,65.073,100.805,66.597L102.795,68.587L100.092,71.291C79.302,50.501,58.536,29.735,37.746,8.945C37.083,8.282,36.198,7.864,35.24,7.815L17.202,6.512C16.072,6.439,14.941,6.856,14.155,7.643C13.344,8.454,12.926,9.559,13.024,10.69L14.302,28.728C14.376,29.661,14.769,30.571,15.433,31.234C36.223,52.024,56.988,72.74,77.778,93.53L75.075,96.234L73.085,94.243C71.561,92.72,69.054,92.72,67.531,94.243C66.007,95.767,66.007,98.273,67.531,99.797L72.298,104.564C73.035,105.302,74.043,105.719,75.075,105.719C76.107,105.719,77.115,105.302,77.852,104.564L87.117,95.3L96.725,104.908ZM90.754,50.869L110.389,31.234C111.052,30.571,111.47,29.686,111.519,28.728L112.797,10.69C112.871,9.559,112.453,8.429,111.666,7.643C110.855,6.832,109.75,6.414,108.619,6.512L90.582,7.79C89.648,7.864,88.763,8.257,88.075,8.921L68.44,28.556ZM35.068,61.928L25.68,71.315L22.977,68.612L24.968,66.621C26.491,65.098,26.491,62.591,24.968,61.068C23.444,59.544,20.937,59.544,19.414,61.068L14.646,65.835C13.123,67.359,13.123,69.865,14.646,71.389L23.911,80.653L14.351,90.213L29.072,104.933L38.656,95.349L47.92,104.614C48.657,105.351,49.665,105.769,50.697,105.769C51.729,105.769,52.737,105.351,53.474,104.614L58.242,99.846C59.765,98.323,59.765,95.816,58.242,94.292C56.718,92.769,54.211,92.769,52.688,94.292L50.697,96.283L47.994,93.58L57.357,84.217ZM8.822,95.742L1.155,103.434C-0.369,104.958,-0.369,107.464,1.155,108.988L10.321,118.154C11.059,118.891,12.066,119.309,13.098,119.309C14.13,119.309,15.138,118.891,15.875,118.154L23.542,110.462ZM8.822,95.742"/>
</g>
  <g id="Bold-M" transform="matrix(1.0,0.0,0.0,1.0,2278.3493205915174,1027.859340122768)">  <path stroke-linejoin="miter" stroke-linecap="butt" stroke-width="1px" fill-opacity="1" stroke-dasharray="none" stroke-opacity="1" enable-background="new 0 0 512 512" stroke-miterlimit="4" fill="#000000" fill-rule="nonzero" stroke="none" d="M124.666,103.434L116.975,95.742L102.254,110.462L109.922,118.13C110.683,118.891,111.691,119.285,112.699,119.285C113.706,119.285,114.714,118.891,115.475,118.13L124.666,108.963C125.404,108.226,125.821,107.218,125.821,106.186C125.821,105.179,125.404,104.171,124.666,103.434ZM111.445,90.213L101.861,80.629L111.126,71.364C112.649,69.841,112.649,67.334,111.126,65.81L106.358,61.043C104.835,59.519,102.328,59.495,100.805,61.043C99.281,62.567,99.256,65.073,100.805,66.597L102.795,68.587L100.092,71.291C79.302,50.501,58.536,29.735,37.746,8.945C37.083,8.282,36.198,7.864,35.24,7.815L17.202,6.512C16.072,6.439,14.941,6.856,14.155,7.643C13.344,8.454,12.926,9.559,13.024,10.69L14.302,28.728C14.376,29.661,14.769,30.571,15.433,31.234C36.223,52.024,56.988,72.74,77.778,93.53L75.075,96.234L73.085,94.243C71.561,92.72,69.054,92.72,67.531,94.243C66.007,95.767,66.007,98.273,67.531,99.797L72.298,104.564C73.035,105.302,74.043,105.719,75.075,105.719C76.107,105.719,77.115,105.302,77.852,104.564L87.117,95.3L96.725,104.908ZM90.754,50.869L110.389,31.234C111.052,30.571,111.47,29.686,111.519,28.728L112.797,10.69C112.871,9.559,112.453,8.429,111.666,7.643C110.855,6.832,109.75,6.414,108.619,6.512L90.582,7.79C89.648,7.864,88.763,8.257,88.075,8.921L68.44,28.556ZM35.068,61.928L25.68,71.315L22.977,68.612L24.968,66.621C26.491,65.098,26.491,62.591,24.968,61.068C23.444,59.544,20.937,59.544,19.414,61.068L14.646,65.835C13.123,67.359,13.123,69.865,14.646,71.389L23.911,80.653L14.351,90.213L29.072,104.933L38.656,95.349L47.92,104.614C48.657,105.351,49.665,105.769,50.697,105.769C51.729,105.769,52.737,105.351,53.474,104.614L58.242,99.846C59.765,98.323,59.765,95.816,58.242,94.292C56.718,92.769,54.211,92.769,52.688,94.292L50.697,96.283L47.994,93.58L57.357,84.217ZM8.822,95.742L1.155,103.434C-0.369,104.958,-0.369,107.464,1.155,108.988L10.321,118.154C11.059,118.891,12.066,119.309,13.098,119.309C14.13,119.309,15.138,118.891,15.875,118.154L23.542,110.462ZM8.822,95.742"/>
</g>
  <g id="Semibold-M" transform="matrix(1.0,0.0,0.0,1.0,1981.6393205915178,1027.859340122768)">  <path stroke-dasharray="none" stroke="none" fill="#000000" stroke-width="1px" stroke-miterlimit="4" fill-rule="nonzero" enable-background="new 0 0 512 512" stroke-linejoin="miter" stroke-opacity="1" fill-opacity="1" stroke-linecap="butt" d="M124.666,103.434L116.975,95.742L102.254,110.462L109.922,118.13C110.683,118.891,111.691,119.285,112.699,119.285C113.706,119.285,114.714,118.891,115.475,118.13L124.666,108.963C125.404,108.226,125.821,107.218,125.821,106.186C125.821,105.179,125.404,104.171,124.666,103.434ZM111.445,90.213L101.861,80.629L111.126,71.364C112.649,69.841,112.649,67.334,111.126,65.81L106.358,61.043C104.835,59.519,102.328,59.495,100.805,61.043C99.281,62.567,99.256,65.073,100.805,66.597L102.795,68.587L100.092,71.291C79.302,50.501,58.536,29.735,37.746,8.945C37.083,8.282,36.198,7.864,35.24,7.815L17.202,6.512C16.072,6.439,14.941,6.856,14.155,7.643C13.344,8.454,12.926,9.559,13.024,10.69L14.302,28.728C14.376,29.661,14.769,30.571,15.433,31.234C36.223,52.024,56.988,72.74,77.778,93.53L75.075,96.234L73.085,94.243C71.561,92.72,69.054,92.72,67.531,94.243C66.007,95.767,66.007,98.273,67.531,99.797L72.298,104.564C73.035,105.302,74.043,105.719,75.075,105.719C76.107,105.719,77.115,105.302,77.852,104.564L87.117,95.3L96.725,104.908ZM90.754,50.869L110.389,31.234C111.052,30.571,111.47,29.686,111.519,28.728L112.797,10.69C112.871,9.559,112.453,8.429,111.666,7.643C110.855,6.832,109.75,6.414,108.619,6.512L90.582,7.79C89.648,7.864,88.763,8.257,88.075,8.921L68.44,28.556ZM35.068,61.928L25.68,71.315L22.977,68.612L24.968,66.621C26.491,65.098,26.491,62.591,24.968,61.068C23.444,59.544,20.937,59.544,19.414,61.068L14.646,65.835C13.123,67.359,13.123,69.865,14.646,71.389L23.911,80.653L14.351,90.213L29.072,104.933L38.656,95.349L47.92,104.614C48.657,105.351,49.665,105.769,50.697,105.769C51.729,105.769,52.737,105.351,53.474,104.614L58.242,99.846C59.765,98.323,59.765,95.816,58.242,94.292C56.718,92.769,54.211,92.769,52.688,94.292L50.697,96.283L47.994,93.58L57.357,84.217ZM8.822,95.742L1.155,103.434C-0.369,104.958,-0.369,107.464,1.155,108.988L10.321,118.154C11.059,118.891,12.066,119.309,13.098,119.309C14.13,119.309,15.138,118.891,15.875,118.154L23.542,110.462ZM8.822,95.742"/>
</g>
  <g id="Medium-M" transform="matrix(1.0,0.0,0.0,1.0,1684.9293205915178,1027.859340122768)">  <path stroke="none" stroke-linecap="butt" fill-rule="nonzero" stroke-opacity="1" stroke-miterlimit="4" stroke-dasharray="none" fill="#000000" enable-background="new 0 0 512 512" stroke-linejoin="miter" fill-opacity="1" stroke-width="1px" d="M124.666,103.434L116.975,95.742L102.254,110.462L109.922,118.13C110.683,118.891,111.691,119.285,112.699,119.285C113.706,119.285,114.714,118.891,115.475,118.13L124.666,108.963C125.404,108.226,125.821,107.218,125.821,106.186C125.821,105.179,125.404,104.171,124.666,103.434ZM111.445,90.213L101.861,80.629L111.126,71.364C112.649,69.841,112.649,67.334,111.126,65.81L106.358,61.043C104.835,59.519,102.328,59.495,100.805,61.043C99.281,62.567,99.256,65.073,100.805,66.597L102.795,68.587L100.092,71.291C79.302,50.501,58.536,29.735,37.746,8.945C37.083,8.282,36.198,7.864,35.24,7.815L17.202,6.512C16.072,6.439,14.941,6.856,14.155,7.643C13.344,8.454,12.926,9.559,13.024,10.69L14.302,28.728C14.376,29.661,14.769,30.571,15.433,31.234C36.223,52.024,56.988,72.74,77.778,93.53L75.075,96.234L73.085,94.243C71.561,92.72,69.054,92.72,67.531,94.243C66.007,95.767,66.007,98.273,67.531,99.797L72.298,104.564C73.035,105.302,74.043,105.719,75.075,105.719C76.107,105.719,77.115,105.302,77.852,104.564L87.117,95.3L96.725,104.908ZM90.754,50.869L110.389,31.234C111.052,30.571,111.47,29.686,111.519,28.728L112.797,10.69C112.871,9.559,112.453,8.429,111.666,7.643C110.855,6.832,109.75,6.414,108.619,6.512L90.582,7.79C89.648,7.864,88.763,8.257,88.075,8.921L68.44,28.556ZM35.068,61.928L25.68,71.315L22.977,68.612L24.968,66.621C26.491,65.098,26.491,62.591,24.968,61.068C23.444,59.544,20.937,59.544,19.414,61.068L14.646,65.835C13.123,67.359,13.123,69.865,14.646,71.389L23.911,80.653L14.351,90.213L29.072,104.933L38.656,95.349L47.92,104.614C48.657,105.351,49.665,105.769,50.697,105.769C51.729,105.769,52.737,105.351,53.474,104.614L58.242,99.846C59.765,98.323,59.765,95.816,58.242,94.292C56.718,92.769,54.211,92.769,52.688,94.292L50.697,96.283L47.994,93.58L57.357,84.217ZM8.822,95.742L1.155,103.434C-0.369,104.958,-0.369,107.464,1.155,108.988L10.321,118.154C11.059,118.891,12.066,119.309,13.098,119.309C14.13,119.309,15.138,118.891,15.875,118.154L23.542,110.462ZM8.822,95.742"/>
</g>
  <g id="Regular-M" transform="matrix(1.0,0.0,0.0,1.0,1388.2193205915178,1027.859340122768)">  <path stroke-linecap="butt" stroke-width="1px" fill="#000000" enable-background="new 0 0 512 512" stroke-opacity="1" stroke-dasharray="none" stroke-miterlimit="4" stroke="none" fill-rule="nonzero" stroke-linejoin="miter" fill-opacity="1" d="M124.666,103.434L116.975,95.742L102.254,110.462L109.922,118.13C110.683,118.891,111.691,119.285,112.699,119.285C113.706,119.285,114.714,118.891,115.475,118.13L124.666,108.963C125.404,108.226,125.821,107.218,125.821,106.186C125.821,105.179,125.404,104.171,124.666,103.434ZM111.445,90.213L101.861,80.629L111.126,71.364C112.649,69.841,112.649,67.334,111.126,65.81L106.358,61.043C104.835,59.519,102.328,59.495,100.805,61.043C99.281,62.567,99.256,65.073,100.805,66.597L102.795,68.587L100.092,71.291C79.302,50.501,58.536,29.735,37.746,8.945C37.083,8.282,36.198,7.864,35.24,7.815L17.202,6.512C16.072,6.439,14.941,6.856,14.155,7.643C13.344,8.454,12.926,9.559,13.024,10.69L14.302,28.728C14.376,29.661,14.769,30.571,15.433,31.234C36.223,52.024,56.988,72.74,77.778,93.53L75.075,96.234L73.085,94.243C71.561,92.72,69.054,92.72,67.531,94.243C66.007,95.767,66.007,98.273,67.531,99.797L72.298,104.564C73.035,105.302,74.043,105.719,75.075,105.719C76.107,105.719,77.115,105.302,77.852,104.564L87.117,95.3L96.725,104.908ZM90.754,50.869L110.389,31.234C111.052,30.571,111.47,29.686,111.519,28.728L112.797,10.69C112.871,9.559,112.453,8.429,111.666,7.643C110.855,6.832,109.75,6.414,108.619,6.512L90.582,7.79C89.648,7.864,88.763,8.257,88.075,8.921L68.44,28.556ZM35.068,61.928L25.68,71.315L22.977,68.612L24.968,66.621C26.491,65.098,26.491,62.591,24.968,61.068C23.444,59.544,20.937,59.544,19.414,61.068L14.646,65.835C13.123,67.359,13.123,69.865,14.646,71.389L23.911,80.653L14.351,90.213L29.072,104.933L38.656,95.349L47.92,104.614C48.657,105.351,49.665,105.769,50.697,105.769C51.729,105.769,52.737,105.351,53.474,104.614L58.242,99.846C59.765,98.323,59.765,95.816,58.242,94.292C56.718,92.769,54.211,92.769,52.688,94.292L50.697,96.283L47.994,93.58L57.357,84.217ZM8.822,95.742L1.155,103.434C-0.369,104.958,-0.369,107.464,1.155,108.988L10.321,118.154C11.059,118.891,12.066,119.309,13.098,119.309C14.13,119.309,15.138,118.891,15.875,118.154L23.542,110.462ZM8.822,95.742"/>
</g>
  <g id="Light-M" transform="matrix(1.0,0.0,0.0,1.0,1091.509320591518,1027.859340122768)">  <path fill="#000000" stroke="none" stroke-dasharray="none" stroke-linecap="butt" fill-rule="nonzero" fill-opacity="1" enable-background="new 0 0 512 512" stroke-width="1px" stroke-linejoin="miter" stroke-opacity="1" stroke-miterlimit="4" d="M124.666,103.434L116.975,95.742L102.254,110.462L109.922,118.13C110.683,118.891,111.691,119.285,112.699,119.285C113.706,119.285,114.714,118.891,115.475,118.13L124.666,108.963C125.404,108.226,125.821,107.218,125.821,106.186C125.821,105.179,125.404,104.171,124.666,103.434ZM111.445,90.213L101.861,80.629L111.126,71.364C112.649,69.841,112.649,67.334,111.126,65.81L106.358,61.043C104.835,59.519,102.328,59.495,100.805,61.043C99.281,62.567,99.256,65.073,100.805,66.597L102.795,68.587L100.092,71.291C79.302,50.501,58.536,29.735,37.746,8.945C37.083,8.282,36.198,7.864,35.24,7.815L17.202,6.512C16.072,6.439,14.941,6.856,14.155,7.643C13.344,8.454,12.926,9.559,13.024,10.69L14.302,28.728C14.376,29.661,14.769,30.571,15.433,31.234C36.223,52.024,56.988,72.74,77.778,93.53L75.075,96.234L73.085,94.243C71.561,92.72,69.054,92.72,67.531,94.243C66.007,95.767,66.007,98.273,67.531,99.797L72.298,104.564C73.035,105.302,74.043,105.719,75.075,105.719C76.107,105.719,77.115,105.302,77.852,104.564L87.117,95.3L96.725,104.908ZM90.754,50.869L110.389,31.234C111.052,30.571,111.47,29.686,111.519,28.728L112.797,10.69C112.871,9.559,112.453,8.429,111.666,7.643C110.855,6.832,109.75,6.414,108.619,6.512L90.582,7.79C89.648,7.864,88.763,8.257,88.075,8.921L68.44,28.556ZM35.068,61.928L25.68,71.315L22.977,68.612L24.968,66.621C26.491,65.098,26.491,62.591,24.968,61.068C23.444,59.544,20.937,59.544,19.414,61.068L14.646,65.835C13.123,67.359,13.123,69.865,14.646,71.389L23.911,80.653L14.351,90.213L29.072,104.933L38.656,95.349L47.92,104.614C48.657,105.351,49.665,105.769,50.697,105.769C51.729,105.769,52.737,105.351,53.474,104.614L58.242,99.846C59.765,98.323,59.765,95.816,58.242,94.292C56.718,92.769,54.211,92.769,52.688,94.292L50.697,96.283L47.994,93.58L57.357,84.217ZM8.822,95.742L1.155,103.434C-0.369,104.958,-0.369,107.464,1.155,108.988L10.321,118.154C11.059,118.891,12.066,119.309,13.098,119.309C14.13,119.309,15.138,118.891,15.875,118.154L23.542,110.462ZM8.822,95.742"/>
</g>
  <g id="Thin-M" transform="matrix(1.0,0.0,0.0,1.0,794.7993205915179,1027.859340122768)">  <path stroke-dasharray="none" stroke-width="1px" stroke-linecap="butt" stroke-linejoin="miter" stroke-opacity="1" fill="#000000" fill-opacity="1" fill-rule="nonzero" stroke="none" enable-background="new 0 0 512 512" stroke-miterlimit="4" d="M124.666,103.434L116.975,95.742L102.254,110.462L109.922,118.13C110.683,118.891,111.691,119.285,112.699,119.285C113.706,119.285,114.714,118.891,115.475,118.13L124.666,108.963C125.404,108.226,125.821,107.218,125.821,106.186C125.821,105.179,125.404,104.171,124.666,103.434ZM111.445,90.213L101.861,80.629L111.126,71.364C112.649,69.841,112.649,67.334,111.126,65.81L106.358,61.043C104.835,59.519,102.328,59.495,100.805,61.043C99.281,62.567,99.256,65.073,100.805,66.597L102.795,68.587L100.092,71.291C79.302,50.501,58.536,29.735,37.746,8.945C37.083,8.282,36.198,7.864,35.24,7.815L17.202,6.512C16.072,6.439,14.941,6.856,14.155,7.643C13.344,8.454,12.926,9.559,13.024,10.69L14.302,28.728C14.376,29.661,14.769,30.571,15.433,31.234C36.223,52.024,56.988,72.74,77.778,93.53L75.075,96.234L73.085,94.243C71.561,92.72,69.054,92.72,67.531,94.243C66.007,95.767,66.007,98.273,67.531,99.797L72.298,104.564C73.035,105.302,74.043,105.719,75.075,105.719C76.107,105.719,77.115,105.302,77.852,104.564L87.117,95.3L96.725,104.908ZM90.754,50.869L110.389,31.234C111.052,30.571,111.47,29.686,111.519,28.728L112.797,10.69C112.871,9.559,112.453,8.429,111.666,7.643C110.855,6.832,109.75,6.414,108.619,6.512L90.582,7.79C89.648,7.864,88.763,8.257,88.075,8.921L68.44,28.556ZM35.068,61.928L25.68,71.315L22.977,68.612L24.968,66.621C26.491,65.098,26.491,62.591,24.968,61.068C23.444,59.544,20.937,59.544,19.414,61.068L14.646,65.835C13.123,67.359,13.123,69.865,14.646,71.389L23.911,80.653L14.351,90.213L29.072,104.933L38.656,95.349L47.92,104.614C48.657,105.351,49.665,105.769,50.697,105.769C51.729,105.769,52.737,105.351,53.474,104.614L58.242,99.846C59.765,98.323,59.765,95.816,58.242,94.292C56.718,92.769,54.211,92.769,52.688,94.292L50.697,96.283L47.994,93.58L57.357,84.217ZM8.822,95.742L1.155,103.434C-0.369,104.958,-0.369,107.464,1.155,108.988L10.321,118.154C11.059,118.891,12.066,119.309,13.098,119.309C14.13,119.309,15.138,118.891,15.875,118.154L23.542,110.462ZM8.822,95.742"/>
</g>
  <g id="Ultralight-M" transform="matrix(1.0,0.0,0.0,1.0,498.0893205915179,1027.859340122768)">  <path stroke="none" stroke-dasharray="none" fill="#000000" fill-rule="nonzero" stroke-width="1px" stroke-miterlimit="4" stroke-linecap="butt" enable-background="new 0 0 512 512" stroke-linejoin="miter" stroke-opacity="1" fill-opacity="1" d="M124.666,103.434L116.975,95.742L102.254,110.462L109.922,118.13C110.683,118.891,111.691,119.285,112.699,119.285C113.706,119.285,114.714,118.891,115.475,118.13L124.666,108.963C125.404,108.226,125.821,107.218,125.821,106.186C125.821,105.179,125.404,104.171,124.666,103.434ZM111.445,90.213L101.861,80.629L111.126,71.364C112.649,69.841,112.649,67.334,111.126,65.81L106.358,61.043C104.835,59.519,102.328,59.495,100.805,61.043C99.281,62.567,99.256,65.073,100.805,66.597L102.795,68.587L100.092,71.291C79.302,50.501,58.536,29.735,37.746,8.945C37.083,8.282,36.198,7.864,35.24,7.815L17.202,6.512C16.072,6.439,14.941,6.856,14.155,7.643C13.344,8.454,12.926,9.559,13.024,10.69L14.302,28.728C14.376,29.661,14.769,30.571,15.433,31.234C36.223,52.024,56.988,72.74,77.778,93.53L75.075,96.234L73.085,94.243C71.561,92.72,69.054,92.72,67.531,94.243C66.007,95.767,66.007,98.273,67.531,99.797L72.298,104.564C73.035,105.302,74.043,105.719,75.075,105.719C76.107,105.719,77.115,105.302,77.852,104.564L87.117,95.3L96.725,104.908ZM90.754,50.869L110.389,31.234C111.052,30.571,111.47,29.686,111.519,28.728L112.797,10.69C112.871,9.559,112.453,8.429,111.666,7.643C110.855,6.832,109.75,6.414,108.619,6.512L90.582,7.79C89.648,7.864,88.763,8.257,88.075,8.921L68.44,28.556ZM35.068,61.928L25.68,71.315L22.977,68.612L24.968,66.621C26.491,65.098,26.491,62.591,24.968,61.068C23.444,59.544,20.937,59.544,19.414,61.068L14.646,65.835C13.123,67.359,13.123,69.865,14.646,71.389L23.911,80.653L14.351,90.213L29.072,104.933L38.656,95.349L47.92,104.614C48.657,105.351,49.665,105.769,50.697,105.769C51.729,105.769,52.737,105.351,53.474,104.614L58.242,99.846C59.765,98.323,59.765,95.816,58.242,94.292C56.718,92.769,54.211,92.769,52.688,94.292L50.697,96.283L47.994,93.58L57.357,84.217ZM8.822,95.742L1.155,103.434C-0.369,104.958,-0.369,107.464,1.155,108.988L10.321,118.154C11.059,118.891,12.066,119.309,13.098,119.309C14.13,119.309,15.138,118.891,15.875,118.154L23.542,110.462ZM8.822,95.742"/>
</g>
  <g id="Black-S" transform="matrix(1.0,0.0,0.0,1.0,2885.420938023158,611.5109575544085)">  <path stroke-miterlimit="4" fill-rule="nonzero" fill="#000000" stroke-width="1px" stroke-dasharray="none" stroke-linecap="butt" stroke-linejoin="miter" stroke="none" enable-background="new 0 0 512 512" stroke-opacity="1" fill-opacity="1" d="M97.614,80.989L91.591,74.966L80.065,86.492L86.069,92.495C86.665,93.092,87.454,93.4,88.243,93.4C89.032,93.4,89.821,93.092,90.417,92.495L97.614,85.318C98.191,84.741,98.518,83.952,98.518,83.144C98.518,82.355,98.191,81.566,97.614,80.989ZM87.262,70.637L79.757,63.132L87.012,55.878C88.205,54.685,88.205,52.723,87.012,51.53L83.279,47.797C82.086,46.604,80.123,46.584,78.93,47.797C77.737,48.99,77.718,50.952,78.93,52.145L80.489,53.704L78.372,55.821C62.093,39.542,45.834,23.283,29.555,7.004C29.036,6.484,28.343,6.157,27.593,6.119L13.469,5.099C12.584,5.041,11.699,5.368,11.083,5.984C10.448,6.619,10.121,7.485,10.198,8.37L11.199,22.494C11.256,23.225,11.564,23.937,12.084,24.456C28.362,40.735,44.622,56.956,60.9,73.234L58.784,75.351L57.225,73.792C56.032,72.599,54.07,72.599,52.877,73.792C51.684,74.985,51.684,76.948,52.877,78.141L56.609,81.874C57.187,82.451,57.976,82.778,58.784,82.778C59.592,82.778,60.381,82.451,60.958,81.874L68.212,74.62L75.736,82.143ZM71.06,39.831L86.434,24.456C86.954,23.937,87.281,23.244,87.319,22.494L88.32,8.37C88.378,7.485,88.051,6.6,87.435,5.984C86.8,5.349,85.934,5.022,85.049,5.099L70.925,6.1C70.194,6.157,69.501,6.465,68.963,6.985L53.588,22.359ZM27.458,48.489L20.108,55.84L17.991,53.723L19.55,52.165C20.743,50.972,20.743,49.009,19.55,47.816C18.357,46.623,16.394,46.623,15.201,47.816L11.468,51.549C10.275,52.742,10.275,54.704,11.468,55.897L18.722,63.152L11.237,70.637L22.763,82.163L30.267,74.658L37.522,81.912C38.099,82.49,38.888,82.817,39.696,82.817C40.504,82.817,41.293,82.49,41.87,81.912L45.603,78.18C46.796,76.987,46.796,75.024,45.603,73.831C44.41,72.638,42.447,72.638,41.254,73.831L39.696,75.389L37.579,73.273L44.91,65.942ZM6.908,74.966L0.904,80.989C-0.289,82.182,-0.289,84.144,0.904,85.337L8.082,92.515C8.659,93.092,9.448,93.419,10.256,93.419C11.064,93.419,11.853,93.092,12.43,92.515L18.434,86.492ZM6.908,74.966"/>
</g>
  <g id="Heavy-S" transform="matrix(1.0,0.0,0.0,1.0,2588.710938023158,611.5109575544085)">  <path stroke-linejoin="miter" stroke-miterlimit="4" stroke-linecap="butt" fill="#000000" enable-background="new 0 0 512 512" fill-rule="nonzero" stroke-width="1px" fill-opacity="1" stroke="none" stroke-dasharray="none" stroke-opacity="1" d="M97.614,80.989L91.591,74.966L80.065,86.492L86.069,92.495C86.665,93.092,87.454,93.4,88.243,93.4C89.032,93.4,89.821,93.092,90.417,92.495L97.614,85.318C98.191,84.741,98.518,83.952,98.518,83.144C98.518,82.355,98.191,81.566,97.614,80.989ZM87.262,70.637L79.757,63.132L87.012,55.878C88.205,54.685,88.205,52.723,87.012,51.53L83.279,47.797C82.086,46.604,80.123,46.584,78.93,47.797C77.737,48.99,77.718,50.952,78.93,52.145L80.489,53.704L78.372,55.821C62.093,39.542,45.834,23.283,29.555,7.004C29.036,6.484,28.343,6.157,27.593,6.119L13.469,5.099C12.584,5.041,11.699,5.368,11.083,5.984C10.448,6.619,10.121,7.485,10.198,8.37L11.199,22.494C11.256,23.225,11.564,23.937,12.084,24.456C28.362,40.735,44.622,56.956,60.9,73.234L58.784,75.351L57.225,73.792C56.032,72.599,54.07,72.599,52.877,73.792C51.684,74.985,51.684,76.948,52.877,78.141L56.609,81.874C57.187,82.451,57.976,82.778,58.784,82.778C59.592,82.778,60.381,82.451,60.958,81.874L68.212,74.62L75.736,82.143ZM71.06,39.831L86.434,24.456C86.954,23.937,87.281,23.244,87.319,22.494L88.32,8.37C88.378,7.485,88.051,6.6,87.435,5.984C86.8,5.349,85.934,5.022,85.049,5.099L70.925,6.1C70.194,6.157,69.501,6.465,68.963,6.985L53.588,22.359ZM27.458,48.489L20.108,55.84L17.991,53.723L19.55,52.165C20.743,50.972,20.743,49.009,19.55,47.816C18.357,46.623,16.394,46.623,15.201,47.816L11.468,51.549C10.275,52.742,10.275,54.704,11.468,55.897L18.722,63.152L11.237,70.637L22.763,82.163L30.267,74.658L37.522,81.912C38.099,82.49,38.888,82.817,39.696,82.817C40.504,82.817,41.293,82.49,41.87,81.912L45.603,78.18C46.796,76.987,46.796,75.024,45.603,73.831C44.41,72.638,42.447,72.638,41.254,73.831L39.696,75.389L37.579,73.273L44.91,65.942ZM6.908,74.966L0.904,80.989C-0.289,82.182,-0.289,84.144,0.904,85.337L8.082,92.515C8.659,93.092,9.448,93.419,10.256,93.419C11.064,93.419,11.853,93.092,12.43,92.515L18.434,86.492ZM6.908,74.966"/>
</g>
  <g id="Bold-S" transform="matrix(1.0,0.0,0.0,1.0,2292.000938023158,611.5109575544085)">  <path stroke-linejoin="miter" stroke-linecap="butt" stroke-width="1px" fill-opacity="1" stroke-dasharray="none" stroke-opacity="1" enable-background="new 0 0 512 512" stroke-miterlimit="4" fill="#000000" fill-rule="nonzero" stroke="none" d="M97.614,80.989L91.591,74.966L80.065,86.492L86.069,92.495C86.665,93.092,87.454,93.4,88.243,93.4C89.032,93.4,89.821,93.092,90.417,92.495L97.614,85.318C98.191,84.741,98.518,83.952,98.518,83.144C98.518,82.355,98.191,81.566,97.614,80.989ZM87.262,70.637L79.757,63.132L87.012,55.878C88.205,54.685,88.205,52.723,87.012,51.53L83.279,47.797C82.086,46.604,80.123,46.584,78.93,47.797C77.737,48.99,77.718,50.952,78.93,52.145L80.489,53.704L78.372,55.821C62.093,39.542,45.834,23.283,29.555,7.004C29.036,6.484,28.343,6.157,27.593,6.119L13.469,5.099C12.584,5.041,11.699,5.368,11.083,5.984C10.448,6.619,10.121,7.485,10.198,8.37L11.199,22.494C11.256,23.225,11.564,23.937,12.084,24.456C28.362,40.735,44.622,56.956,60.9,73.234L58.784,75.351L57.225,73.792C56.032,72.599,54.07,72.599,52.877,73.792C51.684,74.985,51.684,76.948,52.877,78.141L56.609,81.874C57.187,82.451,57.976,82.778,58.784,82.778C59.592,82.778,60.381,82.451,60.958,81.874L68.212,74.62L75.736,82.143ZM71.06,39.831L86.434,24.456C86.954,23.937,87.281,23.244,87.319,22.494L88.32,8.37C88.378,7.485,88.051,6.6,87.435,5.984C86.8,5.349,85.934,5.022,85.049,5.099L70.925,6.1C70.194,6.157,69.501,6.465,68.963,6.985L53.588,22.359ZM27.458,48.489L20.108,55.84L17.991,53.723L19.55,52.165C20.743,50.972,20.743,49.009,19.55,47.816C18.357,46.623,16.394,46.623,15.201,47.816L11.468,51.549C10.275,52.742,10.275,54.704,11.468,55.897L18.722,63.152L11.237,70.637L22.763,82.163L30.267,74.658L37.522,81.912C38.099,82.49,38.888,82.817,39.696,82.817C40.504,82.817,41.293,82.49,41.87,81.912L45.603,78.18C46.796,76.987,46.796,75.024,45.603,73.831C44.41,72.638,42.447,72.638,41.254,73.831L39.696,75.389L37.579,73.273L44.91,65.942ZM6.908,74.966L0.904,80.989C-0.289,82.182,-0.289,84.144,0.904,85.337L8.082,92.515C8.659,93.092,9.448,93.419,10.256,93.419C11.064,93.419,11.853,93.092,12.43,92.515L18.434,86.492ZM6.908,74.966"/>
</g>
  <g id="Semibold-S" transform="matrix(1.0,0.0,0.0,1.0,1995.2909380231583,611.5109575544085)">  <path stroke-dasharray="none" stroke="none" fill="#000000" stroke-width="1px" stroke-miterlimit="4" fill-rule="nonzero" enable-background="new 0 0 512 512" stroke-linejoin="miter" stroke-opacity="1" fill-opacity="1" stroke-linecap="butt" d="M97.614,80.989L91.591,74.966L80.065,86.492L86.069,92.495C86.665,93.092,87.454,93.4,88.243,93.4C89.032,93.4,89.821,93.092,90.417,92.495L97.614,85.318C98.191,84.741,98.518,83.952,98.518,83.144C98.518,82.355,98.191,81.566,97.614,80.989ZM87.262,70.637L79.757,63.132L87.012,55.878C88.205,54.685,88.205,52.723,87.012,51.53L83.279,47.797C82.086,46.604,80.123,46.584,78.93,47.797C77.737,48.99,77.718,50.952,78.93,52.145L80.489,53.704L78.372,55.821C62.093,39.542,45.834,23.283,29.555,7.004C29.036,6.484,28.343,6.157,27.593,6.119L13.469,5.099C12.584,5.041,11.699,5.368,11.083,5.984C10.448,6.619,10.121,7.485,10.198,8.37L11.199,22.494C11.256,23.225,11.564,23.937,12.084,24.456C28.362,40.735,44.622,56.956,60.9,73.234L58.784,75.351L57.225,73.792C56.032,72.599,54.07,72.599,52.877,73.792C51.684,74.985,51.684,76.948,52.877,78.141L56.609,81.874C57.187,82.451,57.976,82.778,58.784,82.778C59.592,82.778,60.381,82.451,60.958,81.874L68.212,74.62L75.736,82.143ZM71.06,39.831L86.434,24.456C86.954,23.937,87.281,23.244,87.319,22.494L88.32,8.37C88.378,7.485,88.051,6.6,87.435,5.984C86.8,5.349,85.934,5.022,85.049,5.099L70.925,6.1C70.194,6.157,69.501,6.465,68.963,6.985L53.588,22.359ZM27.458,48.489L20.108,55.84L17.991,53.723L19.55,52.165C20.743,50.972,20.743,49.009,19.55,47.816C18.357,46.623,16.394,46.623,15.201,47.816L11.468,51.549C10.275,52.742,10.275,54.704,11.468,55.897L18.722,63.152L11.237,70.637L22.763,82.163L30.267,74.658L37.522,81.912C38.099,82.49,38.888,82.817,39.696,82.817C40.504,82.817,41.293,82.49,41.87,81.912L45.603,78.18C46.796,76.987,46.796,75.024,45.603,73.831C44.41,72.638,42.447,72.638,41.254,73.831L39.696,75.389L37.579,73.273L44.91,65.942ZM6.908,74.966L0.904,80.989C-0.289,82.182,-0.289,84.144,0.904,85.337L8.082,92.515C8.659,93.092,9.448,93.419,10.256,93.419C11.064,93.419,11.853,93.092,12.43,92.515L18.434,86.492ZM6.908,74.966"/>
</g>
  <g id="Medium-S" transform="matrix(1.0,0.0,0.0,1.0,1698.5809380231583,611.5109575544085)">  <path stroke="none" stroke-linecap="butt" fill-rule="nonzero" stroke-opacity="1" stroke-miterlimit="4" stroke-dasharray="none" fill="#000000" enable-background="new 0 0 512 512" stroke-linejoin="miter" fill-opacity="1" stroke-width="1px" d="M97.614,80.989L91.591,74.966L80.065,86.492L86.069,92.495C86.665,93.092,87.454,93.4,88.243,93.4C89.032,93.4,89.821,93.092,90.417,92.495L97.614,85.318C98.191,84.741,98.518,83.952,98.518,83.144C98.518,82.355,98.191,81.566,97.614,80.989ZM87.262,70.637L79.757,63.132L87.012,55.878C88.205,54.685,88.205,52.723,87.012,51.53L83.279,47.797C82.086,46.604,80.123,46.584,78.93,47.797C77.737,48.99,77.718,50.952,78.93,52.145L80.489,53.704L78.372,55.821C62.093,39.542,45.834,23.283,29.555,7.004C29.036,6.484,28.343,6.157,27.593,6.119L13.469,5.099C12.584,5.041,11.699,5.368,11.083,5.984C10.448,6.619,10.121,7.485,10.198,8.37L11.199,22.494C11.256,23.225,11.564,23.937,12.084,24.456C28.362,40.735,44.622,56.956,60.9,73.234L58.784,75.351L57.225,73.792C56.032,72.599,54.07,72.599,52.877,73.792C51.684,74.985,51.684,76.948,52.877,78.141L56.609,81.874C57.187,82.451,57.976,82.778,58.784,82.778C59.592,82.778,60.381,82.451,60.958,81.874L68.212,74.62L75.736,82.143ZM71.06,39.831L86.434,24.456C86.954,23.937,87.281,23.244,87.319,22.494L88.32,8.37C88.378,7.485,88.051,6.6,87.435,5.984C86.8,5.349,85.934,5.022,85.049,5.099L70.925,6.1C70.194,6.157,69.501,6.465,68.963,6.985L53.588,22.359ZM27.458,48.489L20.108,55.84L17.991,53.723L19.55,52.165C20.743,50.972,20.743,49.009,19.55,47.816C18.357,46.623,16.394,46.623,15.201,47.816L11.468,51.549C10.275,52.742,10.275,54.704,11.468,55.897L18.722,63.152L11.237,70.637L22.763,82.163L30.267,74.658L37.522,81.912C38.099,82.49,38.888,82.817,39.696,82.817C40.504,82.817,41.293,82.49,41.87,81.912L45.603,78.18C46.796,76.987,46.796,75.024,45.603,73.831C44.41,72.638,42.447,72.638,41.254,73.831L39.696,75.389L37.579,73.273L44.91,65.942ZM6.908,74.966L0.904,80.989C-0.289,82.182,-0.289,84.144,0.904,85.337L8.082,92.515C8.659,93.092,9.448,93.419,10.256,93.419C11.064,93.419,11.853,93.092,12.43,92.515L18.434,86.492ZM6.908,74.966"/>
</g>
  <g id="Regular-S" transform="matrix(1.0,0.0,0.0,1.0,1401.8709380231583,611.5109575544085)">  <path stroke-linecap="butt" stroke-width="1px" fill="#000000" enable-background="new 0 0 512 512" stroke-opacity="1" stroke-dasharray="none" stroke-miterlimit="4" stroke="none" fill-rule="nonzero" stroke-linejoin="miter" fill-opacity="1" d="M97.614,80.989L91.591,74.966L80.065,86.492L86.069,92.495C86.665,93.092,87.454,93.4,88.243,93.4C89.032,93.4,89.821,93.092,90.417,92.495L97.614,85.318C98.191,84.741,98.518,83.952,98.518,83.144C98.518,82.355,98.191,81.566,97.614,80.989ZM87.262,70.637L79.757,63.132L87.012,55.878C88.205,54.685,88.205,52.723,87.012,51.53L83.279,47.797C82.086,46.604,80.123,46.584,78.93,47.797C77.737,48.99,77.718,50.952,78.93,52.145L80.489,53.704L78.372,55.821C62.093,39.542,45.834,23.283,29.555,7.004C29.036,6.484,28.343,6.157,27.593,6.119L13.469,5.099C12.584,5.041,11.699,5.368,11.083,5.984C10.448,6.619,10.121,7.485,10.198,8.37L11.199,22.494C11.256,23.225,11.564,23.937,12.084,24.456C28.362,40.735,44.622,56.956,60.9,73.234L58.784,75.351L57.225,73.792C56.032,72.599,54.07,72.599,52.877,73.792C51.684,74.985,51.684,76.948,52.877,78.141L56.609,81.874C57.187,82.451,57.976,82.778,58.784,82.778C59.592,82.778,60.381,82.451,60.958,81.874L68.212,74.62L75.736,82.143ZM71.06,39.831L86.434,24.456C86.954,23.937,87.281,23.244,87.319,22.494L88.32,8.37C88.378,7.485,88.051,6.6,87.435,5.984C86.8,5.349,85.934,5.022,85.049,5.099L70.925,6.1C70.194,6.157,69.501,6.465,68.963,6.985L53.588,22.359ZM27.458,48.489L20.108,55.84L17.991,53.723L19.55,52.165C20.743,50.972,20.743,49.009,19.55,47.816C18.357,46.623,16.394,46.623,15.201,47.816L11.468,51.549C10.275,52.742,10.275,54.704,11.468,55.897L18.722,63.152L11.237,70.637L22.763,82.163L30.267,74.658L37.522,81.912C38.099,82.49,38.888,82.817,39.696,82.817C40.504,82.817,41.293,82.49,41.87,81.912L45.603,78.18C46.796,76.987,46.796,75.024,45.603,73.831C44.41,72.638,42.447,72.638,41.254,73.831L39.696,75.389L37.579,73.273L44.91,65.942ZM6.908,74.966L0.904,80.989C-0.289,82.182,-0.289,84.144,0.904,85.337L8.082,92.515C8.659,93.092,9.448,93.419,10.256,93.419C11.064,93.419,11.853,93.092,12.43,92.515L18.434,86.492ZM6.908,74.966"/>
</g>
  <g id="Light-S" transform="matrix(1.0,0.0,0.0,1.0,1105.1609380231585,611.5109575544085)">  <path fill="#000000" stroke="none" stroke-dasharray="none" stroke-linecap="butt" fill-rule="nonzero" fill-opacity="1" enable-background="new 0 0 512 512" stroke-width="1px" stroke-linejoin="miter" stroke-opacity="1" stroke-miterlimit="4" d="M97.614,80.989L91.591,74.966L80.065,86.492L86.069,92.495C86.665,93.092,87.454,93.4,88.243,93.4C89.032,93.4,89.821,93.092,90.417,92.495L97.614,85.318C98.191,84.741,98.518,83.952,98.518,83.144C98.518,82.355,98.191,81.566,97.614,80.989ZM87.262,70.637L79.757,63.132L87.012,55.878C88.205,54.685,88.205,52.723,87.012,51.53L83.279,47.797C82.086,46.604,80.123,46.584,78.93,47.797C77.737,48.99,77.718,50.952,78.93,52.145L80.489,53.704L78.372,55.821C62.093,39.542,45.834,23.283,29.555,7.004C29.036,6.484,28.343,6.157,27.593,6.119L13.469,5.099C12.584,5.041,11.699,5.368,11.083,5.984C10.448,6.619,10.121,7.485,10.198,8.37L11.199,22.494C11.256,23.225,11.564,23.937,12.084,24.456C28.362,40.735,44.622,56.956,60.9,73.234L58.784,75.351L57.225,73.792C56.032,72.599,54.07,72.599,52.877,73.792C51.684,74.985,51.684,76.948,52.877,78.141L56.609,81.874C57.187,82.451,57.976,82.778,58.784,82.778C59.592,82.778,60.381,82.451,60.958,81.874L68.212,74.62L75.736,82.143ZM71.06,39.831L86.434,24.456C86.954,23.937,87.281,23.244,87.319,22.494L88.32,8.37C88.378,7.485,88.051,6.6,87.435,5.984C86.8,5.349,85.934,5.022,85.049,5.099L70.925,6.1C70.194,6.157,69.501,6.465,68.963,6.985L53.588,22.359ZM27.458,48.489L20.108,55.84L17.991,53.723L19.55,52.165C20.743,50.972,20.743,49.009,19.55,47.816C18.357,46.623,16.394,46.623,15.201,47.816L11.468,51.549C10.275,52.742,10.275,54.704,11.468,55.897L18.722,63.152L11.237,70.637L22.763,82.163L30.267,74.658L37.522,81.912C38.099,82.49,38.888,82.817,39.696,82.817C40.504,82.817,41.293,82.49,41.87,81.912L45.603,78.18C46.796,76.987,46.796,75.024,45.603,73.831C44.41,72.638,42.447,72.638,41.254,73.831L39.696,75.389L37.579,73.273L44.91,65.942ZM6.908,74.966L0.904,80.989C-0.289,82.182,-0.289,84.144,0.904,85.337L8.082,92.515C8.659,93.092,9.448,93.419,10.256,93.419C11.064,93.419,11.853,93.092,12.43,92.515L18.434,86.492ZM6.908,74.966"/>
</g>
  <g id="Thin-S" transform="matrix(1.0,0.0,0.0,1.0,808.4509380231585,611.5109575544085)">  <path stroke-dasharray="none" stroke-width="1px" stroke-linecap="butt" stroke-linejoin="miter" stroke-opacity="1" fill="#000000" fill-opacity="1" fill-rule="nonzero" stroke="none" enable-background="new 0 0 512 512" stroke-miterlimit="4" d="M97.614,80.989L91.591,74.966L80.065,86.492L86.069,92.495C86.665,93.092,87.454,93.4,88.243,93.4C89.032,93.4,89.821,93.092,90.417,92.495L97.614,85.318C98.191,84.741,98.518,83.952,98.518,83.144C98.518,82.355,98.191,81.566,97.614,80.989ZM87.262,70.637L79.757,63.132L87.012,55.878C88.205,54.685,88.205,52.723,87.012,51.53L83.279,47.797C82.086,46.604,80.123,46.584,78.93,47.797C77.737,48.99,77.718,50.952,78.93,52.145L80.489,53.704L78.372,55.821C62.093,39.542,45.834,23.283,29.555,7.004C29.036,6.484,28.343,6.157,27.593,6.119L13.469,5.099C12.584,5.041,11.699,5.368,11.083,5.984C10.448,6.619,10.121,7.485,10.198,8.37L11.199,22.494C11.256,23.225,11.564,23.937,12.084,24.456C28.362,40.735,44.622,56.956,60.9,73.234L58.784,75.351L57.225,73.792C56.032,72.599,54.07,72.599,52.877,73.792C51.684,74.985,51.684,76.948,52.877,78.141L56.609,81.874C57.187,82.451,57.976,82.778,58.784,82.778C59.592,82.778,60.381,82.451,60.958,81.874L68.212,74.62L75.736,82.143ZM71.06,39.831L86.434,24.456C86.954,23.937,87.281,23.244,87.319,22.494L88.32,8.37C88.378,7.485,88.051,6.6,87.435,5.984C86.8,5.349,85.934,5.022,85.049,5.099L70.925,6.1C70.194,6.157,69.501,6.465,68.963,6.985L53.588,22.359ZM27.458,48.489L20.108,55.84L17.991,53.723L19.55,52.165C20.743,50.972,20.743,49.009,19.55,47.816C18.357,46.623,16.394,46.623,15.201,47.816L11.468,51.549C10.275,52.742,10.275,54.704,11.468,55.897L18.722,63.152L11.237,70.637L22.763,82.163L30.267,74.658L37.522,81.912C38.099,82.49,38.888,82.817,39.696,82.817C40.504,82.817,41.293,82.49,41.87,81.912L45.603,78.18C46.796,76.987,46.796,75.024,45.603,73.831C44.41,72.638,42.447,72.638,41.254,73.831L39.696,75.389L37.579,73.273L44.91,65.942ZM6.908,74.966L0.904,80.989C-0.289,82.182,-0.289,84.144,0.904,85.337L8.082,92.515C8.659,93.092,9.448,93.419,10.256,93.419C11.064,93.419,11.853,93.092,12.43,92.515L18.434,86.492ZM6.908,74.966"/>
</g>
  <g id="Ultralight-S" transform="matrix(1.0,0.0,0.0,1.0,511.7409380231585,611.5109575544085)">  <path stroke="none" stroke-dasharray="none" fill="#000000" fill-rule="nonzero" stroke-width="1px" stroke-miterlimit="4" stroke-linecap="butt" enable-background="new 0 0 512 512" stroke-linejoin="miter" stroke-opacity="1" fill-opacity="1" d="M97.614,80.989L91.591,74.966L80.065,86.492L86.069,92.495C86.665,93.092,87.454,93.4,88.243,93.4C89.032,93.4,89.821,93.092,90.417,92.495L97.614,85.318C98.191,84.741,98.518,83.952,98.518,83.144C98.518,82.355,98.191,81.566,97.614,80.989ZM87.262,70.637L79.757,63.132L87.012,55.878C88.205,54.685,88.205,52.723,87.012,51.53L83.279,47.797C82.086,46.604,80.123,46.584,78.93,47.797C77.737,48.99,77.718,50.952,78.93,52.145L80.489,53.704L78.372,55.821C62.093,39.542,45.834,23.283,29.555,7.004C29.036,6.484,28.343,6.157,27.593,6.119L13.469,5.099C12.584,5.041,11.699,5.368,11.083,5.984C10.448,6.619,10.121,7.485,10.198,8.37L11.199,22.494C11.256,23.225,11.564,23.937,12.084,24.456C28.362,40.735,44.622,56.956,60.9,73.234L58.784,75.351L57.225,73.792C56.032,72.599,54.07,72.599,52.877,73.792C51.684,74.985,51.684,76.948,52.877,78.141L56.609,81.874C57.187,82.451,57.976,82.778,58.784,82.778C59.592,82.778,60.381,82.451,60.958,81.874L68.212,74.62L75.736,82.143ZM71.06,39.831L86.434,24.456C86.954,23.937,87.281,23.244,87.319,22.494L88.32,8.37C88.378,7.485,88.051,6.6,87.435,5.984C86.8,5.349,85.934,5.022,85.049,5.099L70.925,6.1C70.194,6.157,69.501,6.465,68.963,6.985L53.588,22.359ZM27.458,48.489L20.108,55.84L17.991,53.723L19.55,52.165C20.743,50.972,20.743,49.009,19.55,47.816C18.357,46.623,16.394,46.623,15.201,47.816L11.468,51.549C10.275,52.742,10.275,54.704,11.468,55.897L18.722,63.152L11.237,70.637L22.763,82.163L30.267,74.658L37.522,81.912C38.099,82.49,38.888,82.817,39.696,82.817C40.504,82.817,41.293,82.49,41.87,81.912L45.603,78.18C46.796,76.987,46.796,75.024,45.603,73.831C44.41,72.638,42.447,72.638,41.254,73.831L39.696,75.389L37.579,73.273L44.91,65.942ZM6.908,74.966L0.904,80.989C-0.289,82.182,-0.289,84.144,0.904,85.337L8.082,92.515C8.659,93.092,9.448,93.419,10.256,93.419C11.064,93.419,11.853,93.092,12.43,92.515L18.434,86.492ZM6.908,74.966"/>
</g>
 </g>
</svg>
